<?xml version="1.0" encoding="UTF-8"?>
<svg id="Capa_1" data-name="Capa 1" xmlns="http://www.w3.org/2000/svg" xmlns:xlink="http://www.w3.org/1999/xlink" viewBox="0 0 800 800">
  <defs>
    <style>
      .cls-1 {
        fill: url(#Degradado_sin_nombre_118);
      }

      .cls-2 {
        fill: url(#Degradado_sin_nombre_122);
      }

      .cls-3 {
        fill: url(#Degradado_sin_nombre_123);
      }
    </style>
    <linearGradient id="Degradado_sin_nombre_123" data-name="Degradado sin nombre 123" x1="80.82" y1="218.49" x2="605.72" y2="218.49" gradientUnits="userSpaceOnUse">
      <stop offset="0" stop-color="#4c4c4c"/>
      <stop offset=".53" stop-color="#323232"/>
      <stop offset="1" stop-color="#202020"/>
    </linearGradient>
    <linearGradient id="Degradado_sin_nombre_118" data-name="Degradado sin nombre 118" x1="303.02" y1="208.67" x2="303.02" y2="715.54" gradientUnits="userSpaceOnUse">
      <stop offset="0" stop-color="#202020"/>
      <stop offset=".24" stop-color="#272727"/>
      <stop offset="1" stop-color="#3d3d3d"/>
    </linearGradient>
    <linearGradient id="Degradado_sin_nombre_122" data-name="Degradado sin nombre 122" x1="371.08" y1="633.22" x2="581.82" y2="268.2" gradientUnits="userSpaceOnUse">
      <stop offset="0" stop-color="#4c4c4c"/>
      <stop offset=".53" stop-color="#323232"/>
      <stop offset="1" stop-color="#202020"/>
    </linearGradient>
  </defs>
  <g id="_Repetición_radial_" data-name="&amp;lt;Repetición radial&amp;gt;">
    <path class="cls-3" d="m605.72,169.62l-30.08,30.09s-.05-.05-.07-.06l-66.67,66.68c-46.83-36.15-105.54-57.66-169.29-57.66-17.44,0-34.51,1.61-51.05,4.69-82.41,15.34-152,67.13-191.42,138.01-5.57-.87-11.13-.42-16.32,1.14,2.98-18.7,7.55-37.41,13.79-55.97,6.24-18.59,13.9-36.29,22.83-53.03l.13.04c4.41,6.1,10.67,10.91,18.32,13.48,7.42,2.49,15.08,2.52,22.11.5,22.7-38.44,54.39-70.96,92.17-94.66,1.91-7.05,1.77-14.72-.84-22.11-2.67-7.55-7.51-13.71-13.61-18.02,16.57-9.16,34.13-17.09,52.59-23.61,18.49-6.53,37.15-11.39,55.84-14.67l.04.12c-2.08,7.23-2.01,15.13.67,22.73,2.34,6.6,6.32,12.13,11.36,16.29,13.59-2.04,27.51-3.1,41.67-3.1,10.59,0,20.81.47,30.78,1.47,18.06,1.8,35.34,5.32,52.68,10.91,3.76-1.03,7.32-2.62,10.53-4.77s6.07-4.86,8.46-8.1c1.86-2.54,3.32-5.26,4.38-8.1,1.66-4.38,2.38-9.05,2.22-13.75,9.09,4.78,18.07,9.93,26.93,15.45,9.29,5.78,18.45,11.98,27.45,18.58,15.88,11.66,30.69,24.18,44.4,37.43Z"/>
  </g>
  <path class="cls-1" d="m225.89,398.91v.76c.05,10.32,1,20.42,2.79,30.23,18.06,122.71,116.51,219.25,240.13,234.43-11.38,3.02-23.06,5.36-34.99,6.99,0,0-.03,0-.1,0-.07.01-.2.03-.2.03-4.85,5.72-8.03,12.98-8.71,21.01-.67,7.98,1.22,15.59,5.01,22.01-18.88,1.55-38.14,1.56-57.65-.08-19.54-1.64-38.55-4.88-56.93-9.57v-.13c4.87-5.74,8.06-12.97,8.74-21,.64-7.63-1.06-14.92-4.53-21.17-44.31-12.94-84.07-36.59-116.32-67.95-7.37-.09-14.82,2-21.37,6.44-6.63,4.5-11.35,10.76-13.96,17.75-13.09-13.69-25.22-28.65-36.22-44.84-11.03-16.22-20.48-33.03-28.41-50.26l.11-.08c7.51.18,15.14-1.9,21.81-6.44,6.53-4.44,11.26-10.66,13.89-17.55-.03-.07-.06-.13-.09-.2-.03-.07-.05-.13-.08-.19-5.58-12.88-8.73-23.49-12.2-37.4-.74-3.18-1.42-6.38-2.04-9.6,0-.01-.01-.02-.01-.04-3.33-17.21-5.07-34.98-5.07-53.16,0-11.14.66-22.14,1.93-32.94-4.39-5.9-10.54-10.57-18.03-13.08-2.07-.7-4.16-1.21-6.25-1.52,39.42-70.88,109.01-122.67,191.42-138.01,16.54-3.08,33.61-4.69,51.05-4.69,63.75,0,122.46,21.51,169.29,57.66l-.65.65c-20.75-17.38-45.66-29.95-73.02-36-12.02-2.68-24.52-4.07-37.34-4.07-94.99,0-172,77.01-172,172Z"/>
  <path class="cls-2" d="m715.1,446.95h-.13c-6.18-4.3-13.68-6.77-21.74-6.67-1.03.01-2.06.07-3.07.16-6.55.61-12.59,2.9-17.71,6.47-.28,1.42-.57,2.85-.87,4.26l-.22.13c-.05.27-.1.54-.15.81-.58,3.01-1.21,6-1.89,8.97-.02.09-.04.19-.07.28-6.85,27.55-17.66,53.36-31.8,76.85,1.48,7.27,5.13,14.17,10.93,19.65,5.82,5.5,12.94,8.76,20.33,9.81-10.55,15.72-22.55,30.79-35.99,45.02-13.46,14.26-27.85,27.11-42.97,38.56l-.1-.09c-1.44-7.38-5.12-14.37-10.98-19.91-.61-.58-1.23-1.13-1.87-1.65-5-4.14-10.8-6.76-16.84-7.89-27.12,19.24-57.88,33.81-91.15,42.62-123.62-15.18-222.07-111.72-240.13-234.43,14.59,80.2,84.8,141.01,169.21,141.01,76.42,0,141.21-49.86,163.62-118.8h-106.8v-106.4h218.79s-.01-.08-.02-.12h42.4c1.99,14.32,3.1,28.92,3.28,43.76.24,19.61-1.16,38.85-4.06,57.6Z"/>
</svg>